HIERARCHY
ROOT root
{
	OFFSET	0	13.1	24.9
	CHANNELS 6  Xposition Yposition Zposition Xrotation Yrotation Zrotation
	JOINT spine_1
	{
		OFFSET	0	9.99999	0
		CHANNELS 3  Xrotation Yrotation Zrotation
		JOINT spine_2
		{
			OFFSET	0	112	-10
			CHANNELS 3  Xrotation Yrotation Zrotation
			JOINT spine_3
			{
				OFFSET	0	206.5	19.3
				CHANNELS 3  Xrotation Yrotation Zrotation
				JOINT spine_4
				{
					OFFSET	0	110.4	14.6
					CHANNELS 3  Xrotation Yrotation Zrotation
					JOINT neck_1
					{
						OFFSET	0	71.8	-50.3
						CHANNELS 3  Xrotation Yrotation Zrotation
						JOINT neck_2
						{
							OFFSET	0	86.2	-25.8
							CHANNELS 3  Xrotation Yrotation Zrotation
							JOINT head_ee
							{
								OFFSET	0	179.8	-8.7
								CHANNELS 3  Xrotation Yrotation Zrotation
								End Site
								{
									OFFSET	1	0	0
								}
							}
						}
					}
					JOINT left_clavicle
					{
						OFFSET	-43.2	22.4	-70.8
						CHANNELS 3  Xrotation Yrotation Zrotation
						JOINT left_shoulder
						{
							OFFSET	-93.9	-5.79999	48.7
							CHANNELS 3  Xrotation Yrotation Zrotation
							JOINT left_elbow
							{
								OFFSET	-291.4	-30.8	15.2
								CHANNELS 3  Xrotation Yrotation Zrotation
								JOINT left_lowarm_twist
								{
									OFFSET	-110.7	-3.89999	13.6
									CHANNELS 3  Xrotation Yrotation Zrotation
									JOINT left_hand
									{
										OFFSET	-110.7	-3.89999	13.6
										CHANNELS 3  Xrotation Yrotation Zrotation
										JOINT left_ee
										{
											OFFSET	-80.8	-5.10001	12.1
											CHANNELS 3  Xrotation Yrotation Zrotation
											End Site
											{
												OFFSET	1	0	0
											}
										}
									}
								}
							}
						}
					}
					JOINT right_clavicle
					{
						OFFSET	43.2	22.4	-70.8
						CHANNELS 3  Xrotation Yrotation Zrotation
						JOINT right_shoulder
						{
							OFFSET	93.9	-5.79999	48.7
							CHANNELS 3  Xrotation Yrotation Zrotation
							JOINT right_elbow
							{
								OFFSET	291.4	-30.8	15.2
								CHANNELS 3  Xrotation Yrotation Zrotation
								JOINT right_lowarm_twist
								{
									OFFSET	110.7	-3.89999	13.6
									CHANNELS 3  Xrotation Yrotation Zrotation
									JOINT right_hand
									{
										OFFSET	110.7	-3.89999	13.6
										CHANNELS 3  Xrotation Yrotation Zrotation
										JOINT right_ee
										{
											OFFSET	80.8	-5.10001	12.1
											CHANNELS 3  Xrotation Yrotation Zrotation
											End Site
											{
												OFFSET	1	0	0
											}
										}
									}
								}
							}
						}
					}
				}
			}
		}
	}
	JOINT left_hip
	{
		OFFSET	-82.8	-127.5	0.300001
		CHANNELS 3  Xrotation Yrotation Zrotation
		JOINT left_knee
		{
			OFFSET	-28.2	-396.7	2.2
			CHANNELS 3  Xrotation Yrotation Zrotation
			JOINT left_ankle
			{
				OFFSET	-11.7	-411.3	35.4
				CHANNELS 3  Xrotation Yrotation Zrotation
				JOINT left_toes
				{
					OFFSET	0	-60	-88.6
					CHANNELS 3  Xrotation Yrotation Zrotation
					JOINT left_foot_ee
					{
						OFFSET	-22.5	-16.5	-42.2
						CHANNELS 3  Xrotation Yrotation Zrotation
						End Site
						{
							OFFSET	1	0	0
						}
					}
				}
			}
		}
	}
	JOINT right_hip
	{
		OFFSET	82.8	-127.5	0.300001
		CHANNELS 3  Xrotation Yrotation Zrotation
		JOINT right_knee
		{
			OFFSET	28.2	-396.7	2.2
			CHANNELS 3  Xrotation Yrotation Zrotation
			JOINT right_ankle
			{
				OFFSET	11.7	-411.3	35.4
				CHANNELS 3  Xrotation Yrotation Zrotation
				JOINT right_toes
				{
					OFFSET	0	-60	-88.6
					CHANNELS 3  Xrotation Yrotation Zrotation
					JOINT right_foot_ee
					{
						OFFSET	22.5	-16.5	-42.2
						CHANNELS 3  Xrotation Yrotation Zrotation
						End Site
						{
							OFFSET	1	0	0
						}
					}
				}
			}
		}
	}
}
MOTION
Frames: 5
Frame Time: 0.02
1118.36 732.327 -526.775 149.036 -72.8812 154.839 -2.54807 -0.479585 -0.463809 -2.54806 -0.4491 -0.493386 -2.54398 -0.309459 -0.591062 -2.54424 -0.398921 -0.534773 -10.5395 -5.3038 5.71481 -10.5089 -13.8121 4.19061 -0.0 0.0 -0.0 -0.30446 10.7216 0.749221 22.6095 -18.4085 71.8528 1.07352 -28.003 0.267697 -4.67108 -0.187816 0.566616 -2.79496 17.3342 -10.01 -0.0 0.0 -0.0 7.07739 25.5522 -12.443 -12.7848 20.9105 -66.0433 1.28092 32.3949 -0.372095 55.9811 1.42948 6.72507 1.09243 -6.55718 -9.91207 0.0 0.0 0.0 7.6385 28.4037 -11.7229 -28.5347 0.0973966 4.33289 37.3957 3.61674 -4.62707 -4.38952 0.0 0.0 -0.0 0.0 -0.0 -2.39661 32.9195 -12.299 -37.3903 0.309143 -5.62946 33.5165 -17.7873 4.34717 -0.601852 0.0 0.0 0.0 0.0 0.0 
1127.5 732.894 -528.142 148.93 -72.8543 154.64 -2.50237 -0.585659 -0.471287 -2.50242 -0.554483 -0.507599 -2.4973 -0.408325 -0.631171 -2.4975 -0.502881 -0.558765 -11.9302 -5.07837 5.82205 -11.9228 -13.3766 4.18112 -0.0 0.0 -0.0 -0.115086 9.61381 0.939733 24.5084 -18.895 71.7557 1.13605 -29.3685 0.297714 -4.86622 -0.196664 0.589945 -2.72521 16.2345 -10.1631 -0.0 0.0 -0.0 6.76966 24.5687 -11.8666 -13.8949 20.9298 -66.3364 1.23928 31.5445 -0.350045 55.753 1.41075 6.70263 1.14436 -6.58734 -10.2682 0.0 0.0 0.0 7.16988 29.0073 -12.1703 -28.7477 0.0899908 4.36474 37.2756 4.16199 -4.61495 -4.30494 0.0 0.0 -0.0 0.0 -0.0 0.604365 33.2385 -14.1196 -37.7297 0.328687 -5.67782 34.3799 -17.8614 4.43761 -0.545051 0.0 0.0 0.0 0.0 0.0 
1140.39 733.291 -535.27 147.98 -72.7542 153.051 -2.5344 -0.57164 -0.468957 -2.53444 -0.540641 -0.504381 -2.52947 -0.395392 -0.624785 -2.52968 -0.489102 -0.554501 -13.4949 -5.07169 6.26959 -13.5098 -13.5385 4.4223 -0.0 0.0 -0.0 0.0251901 8.76443 1.08343 25.8092 -19.3286 71.9257 1.21968 -31.1389 0.339852 -5.23539 -0.213622 0.633995 -2.63252 14.9048 -10.2821 -0.0 0.0 -0.0 6.19553 23.0086 -10.7609 -15.5725 20.1484 -66.5826 1.16153 29.9145 -0.310312 55.5511 1.39425 6.68271 1.20107 -6.55026 -10.6307 0.0 0.0 0.0 4.64607 30.0487 -10.373 -28.6501 0.0933981 4.35015 37.4117 3.89617 -4.62795 -3.82455 0.0 0.0 -0.0 0.0 -0.0 3.73606 34.2478 -13.8715 -37.8599 0.336261 -5.69634 35.1918 -18.3155 4.52814 -0.515544 0.0 0.0 0.0 0.0 0.0 
1154.05 734.006 -534.505 146.101 -72.0711 151.017 -2.67858 -0.317403 -0.528378 -2.67847 -0.283138 -0.547504 -2.6755 -0.133811 -0.601681 -2.67593 -0.227155 -0.572999 -15.7972 -5.61762 5.47732 -15.902 -13.937 3.20715 -0.0 0.0 -0.0 0.122839 8.02681 1.16963 27.1186 -19.5917 71.9218 1.35178 -33.8058 0.410794 -5.08749 -0.206794 0.61636 -2.44274 13.1885 -9.9651 -0.0 0.0 -0.0 5.39524 20.5187 -9.24581 -19.8917 18.9172 -68.2037 0.955805 25.3361 -0.214845 54.7255 1.32749 6.60065 1.32412 -6.08251 -11.2717 0.0 0.0 0.0 0.70155 31.6144 -9.49699 -26.4367 0.163972 4.01782 37.7884 3.67258 -4.66286 -3.66813 0.0 0.0 -0.0 0.0 -0.0 9.19219 32.9053 -13.9909 -38.7467 0.388963 -5.82203 35.9702 -18.1833 4.60392 -0.605026 0.0 0.0 0.0 0.0 0.0 
1167.11 735.864 -532.866 146.302 -71.5981 151.412 -2.73567 -0.217562 -0.758323 -2.73536 -0.168868 -0.77063 -2.73263 0.0344834 -0.78816 -2.73348 -0.0904206 -0.783715 -16.7795 -4.85714 5.40416 -16.8642 -12.3672 3.30358 -0.0 0.0 -0.0 0.100949 7.50654 1.07074 27.9901 -19.6188 72.2122 1.48252 -36.2912 0.485893 -5.28525 -0.215934 0.639937 -2.29261 10.436 -10.3879 -0.0 0.0 -0.0 5.33206 18.7177 -9.26329 -22.6357 17.6347 -67.7052 0.880543 23.5663 -0.183689 53.9164 1.26323 6.51931 1.19519 -6.54361 -10.589 0.0 0.0 0.0 -0.851291 32.6202 -9.22936 -24.2512 0.221003 3.68728 37.7553 3.76683 -4.65965 -4.12422 0.0 0.0 -0.0 0.0 -0.0 11.563 31.8074 -13.9723 -39.0588 0.407977 -5.86608 36.5021 -17.4834 4.64419 -0.463788 0.0 0.0 0.0 0.0 0.0 
